<svg viewBox="0 0 128 128" xmlns="http://www.w3.org/2000/svg"><radialGradient id="a" cx="19.111" cy="1.556" r="163.55" gradientTransform="matrix(1 0 0 -1 0 130)" gradientUnits="userSpaceOnUse"><stop stop-color="#FFB140" offset="0"/><stop stop-color="#FF5445" offset=".256"/><stop stop-color="#FC2B82" offset=".599"/><stop stop-color="#8E40B7" offset="1"/></radialGradient><path d="M105.8 29.8c0 4.2-3.4 7.7-7.7 7.7s-7.7-3.4-7.7-7.7 3.4-7.7 7.7-7.7c4.3.1 7.7 3.5 7.7 7.7zM64 85.3c-11.8 0-21.3-9.6-21.3-21.3S52.2 42.7 64 42.7 85.3 52.2 85.3 64 75.8 85.3 64 85.3zm0-54.2c-18.2 0-32.9 14.7-32.9 32.9S45.8 96.9 64 96.9 96.9 82.2 96.9 64 82.2 31.1 64 31.1zm0-19.6c17.1 0 19.1.1 25.9.4 6.2.3 9.6 1.3 11.9 2.2 3 1.2 5.1 2.5 7.4 4.8 2.2 2.2 3.6 4.4 4.8 7.4.9 2.3 1.9 5.6 2.2 11.9.3 6.7.4 8.8.4 25.9s-.1 19.1-.4 25.9c-.3 6.2-1.3 9.6-2.2 11.9-1.2 3-2.5 5.1-4.8 7.4-2.2 2.2-4.4 3.6-7.4 4.8-2.3.9-5.6 1.9-11.9 2.2-6.7.3-8.8.4-25.9.4s-19.1-.1-25.9-.4c-6.2-.3-9.6-1.3-11.9-2.2-3-1.2-5.1-2.5-7.4-4.8-2.2-2.2-3.6-4.4-4.8-7.4-.9-2.3-1.9-5.6-2.2-11.9-.3-6.7-.4-8.8-.4-25.9s.1-19.1.4-25.9c.3-6.2 1.3-9.6 2.2-11.9 1.2-3 2.5-5.1 4.8-7.4 2.2-2.2 4.4-3.6 7.4-4.8 2.3-.9 5.6-1.9 11.9-2.2 6.8-.3 8.8-.4 25.9-.4zM64 0C46.6 0 44.4.1 37.6.4s-11.5 1.4-15.5 3c-4.2 1.6-7.8 3.8-11.3 7.4S5 17.9 3.4 22.1C1.8 26.2.7 30.8.4 37.6S0 46.6 0 64s.1 19.6.4 26.4 1.4 11.5 3 15.5c1.6 4.2 3.8 7.8 7.4 11.3s7.1 5.7 11.3 7.4c4.1 1.6 8.7 2.7 15.5 3s9 .4 26.4.4 19.6-.1 26.4-.4 11.5-1.4 15.5-3c4.2-1.6 7.8-3.8 11.3-7.4 3.6-3.6 5.7-7.1 7.4-11.3 1.6-4.1 2.7-8.7 3-15.5s.4-9 .4-26.4-.1-19.6-.4-26.4-1.4-11.5-3-15.5c-1.6-4.2-3.8-7.8-7.4-11.3-3.6-3.6-7.1-5.7-11.3-7.4-4.1-1.6-8.7-2.7-15.5-3S81.4 0 64 0z" fill="url(#a)"/></svg>