<svg xmlns="http://www.w3.org/2000/svg" viewBox="0 0 52 52"><path d="M1 17h50v6H1zM4 6h44v2H4zM4 34h16v2H4zM4 38h14v2H4zM5.5 32h17c.8 0 1.5-.7 1.5-1.5v-3c0-.8-.7-1.5-1.5-1.5h-17c-.8 0-1.5.7-1.5 1.5v3c0 .8.7 1.5 1.5 1.5zm.5-4h16v2H6v-2z"/><path d="M49 10H3c-1.7 0-3 1.3-3 3v30c0 1.7 1.3 3 3 3h46c1.7 0 3-1.3 3-3V13c0-1.7-1.3-3-3-3zm1 33c0 .6-.4 1-1 1H3c-.6 0-1-.4-1-1V24h48v19zm0-21H2v-4h48v4zm0-6H2v-3c0-.6.4-1 1-1h46c.6 0 1 .4 1 1v3z"/><path d="M40 30c-.9 0-1.8.3-2.5.7-.7-.4-1.6-.7-2.5-.7-2.8 0-5 2.2-5 5s2.2 5 5 5c.9 0 1.8-.3 2.5-.7.7.4 1.6.7 2.5.7 2.8 0 5-2.2 5-5s-2.2-5-5-5zm0 8c-.3 0-.6-.1-.9-.2-.7-.2-1.2-.6-1.6-1.2-.4.6-.9 1-1.6 1.2-.3.1-.6.2-.9.2-1.7 0-3-1.3-3-3s1.3-3 3-3c.3 0 .6.1.9.2.7.2 1.2.6 1.6 1.2.4-.6.9-1 1.6-1.2.3-.1.6-.2.9-.2 1.7 0 3 1.3 3 3s-1.3 3-3 3z"/><ellipse cx="34.9" cy="35" rx="3.1" ry="3.1"/></svg>