<svg xmlns="http://www.w3.org/2000/svg" viewBox="0 0 52 52"><path d="M51.6 25.9c-.4-.5-.9-.9-1.6-.9h-2C47.5 12 36.9 2 24 2 10.8 2 0 12.8 0 26s10.8 24 24 24c6.3 0 12.2-2.4 16.7-6.8l-1.4-1.4c-4.1 4-9.6 6.2-15.3 6.2-12.1 0-22-9.9-22-22S11.9 4 24 4c11.8 0 21.5 10 22 21h-2.1c-.6 0-1.2.3-1.6.9-.4.6-.5 1.4-.2 2.1l2.3 5.3c.5 1.1 1.5 1.8 2.6 1.8s2.1-.7 2.6-1.8l2.3-5.3c.2-.7.1-1.5-.3-2.1zM50 27.1l-2.3 5.3c-.3.7-1.1.7-1.4 0L44 27.1V27h6v.1z"/><path d="M23.9 18.6c.4.2.8.4 1.2.4.3 0 .6-.1.9-.2l5.3-2.3c1.1-.5 1.8-1.4 1.8-2.6s-.7-2.1-1.8-2.6L26 9c-.7-.3-1.5-.2-2.1.2-.5.4-.9.9-.9 1.6v2.1c-7 .5-12 6.1-12 12.9 0 7.2 5.8 13 13 13s13-6 13-13h-2c0 6-4.9 11-11 11s-11-4.9-11-11c0-5.7 4-10.4 10-11v2c0 .9.3 1.5.9 1.8zM25 11h.1l5.3 2.3c.4.2.6.4.6.7s-.2.6-.6.7L25.1 17H25v-6z"/><circle cx="24" cy="26" r="4"/></svg>