<svg xmlns="http://www.w3.org/2000/svg" viewBox="0 0 1087.5 606.25"><path d="M1037.5 556.25H50V50h987.5v506.25z" fill="#1c384b"/><path d="M0 606.25h1087.5V0H0v606.25zM22.5 22.5H1065v561.25H22.5V22.5z" fill="#3498db"/><g fill="#fff"><path d="M298.152 364.578v-28.894H176.467V178.997h33.358V306.32h73.997V178.997h33.593V306.32h14.095v58.258h-33.358zM641.124 335.684h-33.592V225.98l-44.164 109.704h-14.565L504.64 225.98v109.704h-33.358V178.997h46.748l38.056 94.67 38.056-94.67h46.982v156.687zM926.543 335.684h-41.11l-47.452-62.722-12.216 14.565v48.157h-33.357V178.997h33.357v70.004l55.44-70.004h41.11l-62.253 73.528 66.48 83.159z"/></g><g fill="#fff"><path d="M327.638 496.934h-3.335V461.57h-12.535v-2.99h28.405v2.99h-12.535v35.363zM364.61 497.624q-9.027 0-14.03-6.095l2.128-2.473q4.773 5.578 11.96 5.578 5.348 0 7.705-2.3 2.415-2.358 2.415-5.348 0-2.3-1.265-3.852-1.265-1.61-3.335-2.473-2.012-.862-4.485-1.552-2.415-.69-4.887-1.438-2.415-.805-4.485-1.84-2.013-1.092-3.278-2.99-1.265-1.955-1.265-4.657 0-4.6 3.623-7.418 3.622-2.817 8.97-2.817 8.222 0 12.995 5.405l-2.185 2.415q-4.025-4.83-10.983-4.83-3.852 0-6.44 2.012-2.53 1.955-2.53 5.06 0 1.955 1.265 3.393 1.265 1.38 3.278 2.185 2.07.747 4.485 1.437 2.472.633 4.887 1.495 2.473.805 4.485 1.955 2.07 1.15 3.335 3.278 1.265 2.07 1.265 5.002 0 4.37-3.277 7.648-3.278 3.22-10.35 3.22zM427.746 496.934h-3.335v-33.868l-13.973 33.868h-1.265l-14.03-33.868v33.868h-3.277V458.58h4.887l13.053 31.625 12.995-31.625h4.945v38.353zM470.583 496.934h-4.197l-15.813-18.055-4.255 4.657v13.398h-3.277V458.58h3.277v20.988l18.515-20.988h4.198l-16.33 18.285 17.882 20.068zM493.238 484.399h-13.8v-2.76h13.8v2.76zM517.388 497.624q-9.027 0-14.03-6.095l2.128-2.473q4.772 5.578 11.96 5.578 5.347 0 7.705-2.3 2.415-2.358 2.415-5.348 0-2.3-1.265-3.852-1.265-1.61-3.335-2.473-2.013-.862-4.485-1.552-2.415-.69-4.888-1.438-2.415-.805-4.485-1.84-2.012-1.092-3.277-2.99-1.265-1.955-1.265-4.657 0-4.6 3.622-7.418 3.623-2.817 8.97-2.817 8.223 0 12.995 5.405l-2.185 2.415q-4.025-4.83-10.982-4.83-3.853 0-6.44 2.012-2.53 1.955-2.53 5.06 0 1.955 1.265 3.393 1.265 1.38 3.277 2.185 2.07.747 4.485 1.437 2.473.633 4.888 1.495 2.472.805 4.485 1.955 2.07 1.15 3.335 3.278 1.265 2.07 1.265 5.002 0 4.37-3.278 7.648-3.277 3.22-10.35 3.22zM575.578 496.934h-3.335v-18.228h-24.322v18.228h-3.278V458.58h3.278v17.135h24.322v-17.135h3.335v38.353zM608.008 497.624q-8.337 0-13.512-5.635-5.118-5.635-5.118-14.203 0-8.567 5.118-14.202 5.175-5.635 13.512-5.635 8.28 0 13.455 5.635 5.175 5.635 5.175 14.202 0 8.568-5.175 14.203t-13.455 5.635zm0-2.99q6.785 0 10.983-4.715 4.197-4.773 4.197-12.133 0-7.417-4.197-12.132-4.14-4.715-10.983-4.715-6.9 0-11.04 4.715-4.14 4.715-4.14 12.132 0 7.36 4.14 12.133 4.14 4.715 11.04 4.715zM643.773 496.934h-3.277V458.58h14.375q5.347 0 8.452 3.278 3.105 3.22 3.105 7.935t-3.162 7.992q-3.105 3.22-8.395 3.22h-11.098v15.928zm10.753-18.918q3.795 0 6.095-2.3 2.357-2.3 2.357-5.922 0-3.623-2.357-5.923-2.3-2.3-6.095-2.3h-10.753v16.445h10.753zM682.356 496.761q-.748.748-1.783.748t-1.782-.748q-.748-.805-.748-1.84 0-.977.748-1.725.747-.747 1.782-.747 1.035 0 1.783.747.805.748.805 1.725 0 1.035-.805 1.84zM723.87 496.934h-3.967l-10.752-15.87h-8.453v15.87h-3.277V458.58h14.317q5.06 0 8.338 3.048 3.335 3.047 3.335 8.165 0 5.002-3.105 7.935-3.048 2.932-7.533 3.105l11.098 16.1zm-12.42-18.86q3.796 0 6.153-2.3 2.358-2.358 2.358-5.98 0-3.623-2.358-5.923-2.357-2.3-6.152-2.3h-10.753v16.503h10.753zM752.276 497.624q-7.245 0-11.098-4.083-3.852-4.14-3.852-11.327V458.58h3.335v23.575q0 5.865 2.99 9.2 3.047 3.278 8.625 3.278 5.635 0 8.625-3.278 2.99-3.277 2.99-9.2v-23.575h3.335v23.633q0 7.245-3.853 11.327-3.795 4.083-11.097 4.083z"/></g><path d="M394.973 406.25h2.5v-275h-2.5v275zM716.222 406.25h2.5v-275h-2.5v275z" fill="#fff"/></svg>