<svg xmlns="http://www.w3.org/2000/svg" viewBox="0 0 1087.5 606.25"><path d="M1037.5 556.25H50V50h987.5v506.25z" fill="#1c384b"/><path d="M0 606.25h1087.5V0H0v606.25zM22.5 22.5H1065v561.25H22.5V22.5z" fill="#3498db"/><g fill="#fff"><path d="M298.152 395.915v-28.894H176.467V210.335h33.358v127.322h73.997V210.335h33.593v127.322h14.095v58.258h-33.358zM641.124 381.468h-33.592V271.764l-44.164 109.704h-14.565L504.64 271.764v109.704h-33.358V224.782h46.748l38.056 94.67 38.056-94.67h46.982v156.686zM926.543 381.468h-41.11l-47.452-62.721-12.216 14.564v48.157h-33.357V224.782h33.357v70.004l55.44-70.004h41.11l-62.253 73.527 66.48 83.16z"/></g><path d="M394.973 440.625h2.5v-275h-2.5v275zM716.222 440.625h2.5v-275h-2.5v275z" fill="#fff"/></svg>